<?xml version="1.0" encoding="utf-8"?>
<!-- Generator: Adobe Illustrator 18.0.0, SVG Export Plug-In . SVG Version: 6.00 Build 0)  -->
<!DOCTYPE svg PUBLIC "-//W3C//DTD SVG 1.1//EN" "http://www.w3.org/Graphics/SVG/1.1/DTD/svg11.dtd">
<svg version="1.1" id="Layer_1" xmlns="http://www.w3.org/2000/svg" xmlns:xlink="http://www.w3.org/1999/xlink" x="0px" y="0px"
	 width="256px" height="256px" viewBox="0 0 256 256" enable-background="new 0 0 256 256" xml:space="preserve">
<g>
	<g>
		<g>
			<g>
				<path fill="#E0E0E0" d="M66.6,228.3V241c-3.1,2.4-6.6,4.4-10.4,5.8l3.8-28.8C64,219.9,66.6,223.9,66.6,228.3z"/>
			</g>
		</g>
		<g>
			<g>
				<path fill="#E0E0E0" d="M32.6,247.4c-4.5-1.4-8.7-3.6-12.3-6.5v-12.6c0-4.2,3.5-8.5,8.3-10.4L32.6,247.4z"/>
			</g>
		</g>
		<g>
			<g>
				<path fill="#4A555F" d="M44.3,212.9L44.3,212.9c-9.1,0-16.5-7.4-16.5-16.5c0-9.1,7.4-16.5,16.5-16.5s16.5,7.4,16.5,16.5
					C60.7,205.5,53.3,212.9,44.3,212.9z M44.3,183.4c-7.2,0-13,5.8-13,13c0,7.2,5.8,13,13,13c7.2,0,13-5.8,13-13
					C57.2,189.3,51.4,183.4,44.3,183.4z"/>
			</g>
			<g>
				<path fill="#FFD552" d="M44.3,205.3c-4.9,0-8.9-4-8.9-8.9c0-4.9,4-8.9,8.9-8.9c4.9,0,8.9,4,8.9,8.9
					C53.2,201.3,49.2,205.3,44.3,205.3z"/>
			</g>
			<g>
				<path fill="#4A555F" d="M74.2,235.2h-3.5v-6.4c0-8.7-7-15.8-15.7-15.9H32.2c-8.8,0-15.9,7.1-15.9,15.9v6.4h-3.5v-6.4
					c0-10.7,8.7-19.4,19.4-19.4H55c10.6,0.1,19.2,8.8,19.2,19.4V235.2z"/>
			</g>
			<g>
				<path fill="#4A555F" d="M38.3,250.4h-1.5l-0.2-1.5l-5.1-39.5h6.4l5.8,7l-6.3,11l2.7,21.1l-1.7,0.2L38.3,250.4z M35.5,212.9
					l1.1,8.7l2.8-4.9l-3.2-3.8H35.5z"/>
			</g>
			<g>
				<path fill="#4A555F" d="M52,248.7l-3.5-0.4l2.7-20.9l-5.8-11.2l5.8-6.7H57L52,248.7z M49.6,216.6l2.4,4.6l1.1-8.3h-0.3
					L49.6,216.6z"/>
			</g>
			<g>
				<rect x="42.6" y="219.9" fill="#4A555F" width="3.5" height="29.1"/>
			</g>
			<g>
				<polygon fill="#4A555F" points="44.3,222.6 40.2,217.7 42.8,215.4 44.4,217.3 46.2,215.2 48.8,217.5 				"/>
			</g>
		</g>
	</g>
	<g>
		<path fill="#4A555F" d="M43.5,250.8c-21.5,0-38.9-17.5-38.9-38.9s17.5-38.9,38.9-38.9s38.9,17.5,38.9,38.9S65,250.8,43.5,250.8z
			 M43.5,176.4c-19.5,0-35.4,15.9-35.4,35.4s15.9,35.4,35.4,35.4S79,231.4,79,211.9S63,176.4,43.5,176.4z"/>
	</g>
	<g>
		<g>
			<path fill="#E0E0E0" d="M221.1,66.9l-9,9c-3.9-0.5-7.8-1.5-11.4-3.2L223.8,55C225.2,59.1,224.2,63.8,221.1,66.9z"/>
		</g>
	</g>
	<g>
		<g>
			<path fill="#E0E0E0" d="M183.5,56.3c-2.2-4.2-3.6-8.7-4.1-13.3l8.9-8.9c3-3,8.5-3.5,13.2-1.5L183.5,56.3z"/>
		</g>
	</g>
	<g>
		<g>
			<path fill="#4A555F" d="M217.2,40c-9.1,0-16.5-7.4-16.5-16.5S208.1,7,217.2,7s16.5,7.4,16.5,16.5S226.3,40,217.2,40z M217.2,10.5
				c-7.2,0-13,5.8-13,13s5.8,13,13,13s13-5.8,13-13S224.3,10.5,217.2,10.5z"/>
		</g>
		<g>
			<path fill="#FFD552" d="M217.2,32.4c-4.9,0-8.9-4-8.9-8.9c0-4.9,4-8.9,8.9-8.9c4.9,0,8.9,4,8.9,8.9
				C226.1,28.4,222.1,32.4,217.2,32.4z"/>
		</g>
		<g>
			<path fill="#4A555F" d="M247.1,62.3h-3.5v-6.4c0-8.7-7-15.8-15.7-15.9h-22.8c-8.8,0-15.9,7.1-15.9,15.9v6.4h-3.5v-6.4
				c0-10.7,8.7-19.4,19.4-19.4h22.8c10.6,0.1,19.2,8.8,19.2,19.4V62.3z"/>
		</g>
		<g>
			<path fill="#4A555F" d="M211.2,77.5h-1.5l-0.2-1.5l-5.1-39.5h6.4l5.8,7l-6.3,11l2.7,21.1l-1.7,0.2L211.2,77.5z M208.4,40l1.1,8.7
				l2.8-4.9l-3.2-3.8H208.4z"/>
		</g>
		<g>
			<path fill="#4A555F" d="M224.9,75.7l-3.5-0.4l2.7-20.9l-5.8-11.2l5.8-6.7h5.8L224.9,75.7z M222.5,43.7l2.4,4.6L226,40h-0.3
				L222.5,43.7z"/>
		</g>
		<g>
			<rect x="215.5" y="47" fill="#4A555F" width="3.5" height="29.1"/>
		</g>
		<g>
			<polygon fill="#4A555F" points="217.2,49.7 213.1,44.8 215.7,42.5 217.3,44.3 219.1,42.3 221.7,44.6 			"/>
		</g>
	</g>
	<g>
		<path fill="#4A555F" d="M216.4,77.9c-21.5,0-38.9-17.5-38.9-38.9S195,0,216.4,0s38.9,17.5,38.9,38.9S237.9,77.9,216.4,77.9z
			 M216.4,3.5c-19.5,0-35.4,15.9-35.4,35.4s15.9,35.4,35.4,35.4s35.4-15.9,35.4-35.4S236,3.5,216.4,3.5z"/>
	</g>
	<g>
		
			<rect x="181.6" y="62.8" transform="matrix(0.7071 0.7071 -0.7071 0.7071 105.629 -108.1145)" fill="#4A555F" width="3.5" height="21.3"/>
	</g>
	<g>
		
			<rect x="75.4" y="170.9" transform="matrix(0.7071 0.7071 -0.7071 0.7071 149.6252 -1.8991)" fill="#4A555F" width="3.5" height="17.5"/>
	</g>
	<g>
		
			<rect x="169.4" y="179.9" transform="matrix(0.7071 0.7071 -0.7071 0.7071 181.177 -74.0982)" fill="#4A555F" width="21.3" height="3.5"/>
	</g>
	<g>
		
			<rect x="65" y="73.7" transform="matrix(0.7071 0.7071 -0.7071 0.7071 74.9467 -30.1023)" fill="#4A555F" width="17.5" height="3.5"/>
	</g>
	<g>
		<g>
			<g>
				<g>
					<path fill="#E0E0E0" d="M62.6,58.7l0,12.7c-3.1,2.4-6.6,4.4-10.4,5.8l3.8-28.8C60,50.4,62.6,54.3,62.6,58.7z"/>
				</g>
			</g>
			<g>
				<g>
					<path fill="#E0E0E0" d="M28.6,77.8c-4.5-1.4-8.7-3.6-12.3-6.5l0-12.6c0-4.2,3.5-8.5,8.3-10.4L28.6,77.8z"/>
				</g>
			</g>
			<g>
				<g>
					<path fill="#4A555F" d="M40.3,43.3c-9.1,0-16.5-7.4-16.5-16.5s7.4-16.5,16.5-16.5s16.5,7.4,16.5,16.5S49.4,43.3,40.3,43.3z
						 M40.3,13.9c-7.2,0-13,5.8-13,13s5.8,13,13,13s13-5.8,13-13S47.5,13.9,40.3,13.9z"/>
				</g>
				<g>
					<path fill="#FFD552" d="M40.3,35.8c-4.9,0-8.9-4-8.9-8.9c0-4.9,4-8.9,8.9-8.9c4.9,0,8.9,4,8.9,8.9
						C49.2,31.8,45.3,35.8,40.3,35.8z"/>
				</g>
				<g>
					<path fill="#4A555F" d="M70.3,65.6h-3.5v-6.4c0-8.7-7-15.8-15.7-15.9H28.3c-8.8,0-15.9,7.1-15.9,15.9v6.4H8.9v-6.4
						c0-10.7,8.7-19.4,19.4-19.4h22.8c10.6,0.1,19.2,8.8,19.2,19.4V65.6z"/>
				</g>
				<g>
					<path fill="#4A555F" d="M34.4,80.8h-1.5l-0.2-1.5l-5.1-39.5h6.4l5.8,7l-6.3,11l2.7,21.1l-1.7,0.2L34.4,80.8z M31.5,43.3
						l1.1,8.7l2.8-4.9l-3.2-3.8H31.5z"/>
				</g>
				<g>
					<path fill="#4A555F" d="M48,79.1l-3.5-0.4l2.7-20.9l-5.8-11.2l5.8-6.7h5.8L48,79.1z M45.7,47l2.4,4.6l1.1-8.3h-0.3L45.7,47z"/>
				</g>
				<g>
					<rect x="38.6" y="50.4" fill="#4A555F" width="3.5" height="29.1"/>
				</g>
				<g>
					<polygon fill="#4A555F" points="40.4,53 36.2,48.1 38.9,45.9 40.4,47.7 42.3,45.6 44.9,47.9 					"/>
				</g>
			</g>
			<g>
				<path fill="#4A555F" d="M39.6,81.2c-21.5,0-38.9-17.5-38.9-38.9S18.1,3.3,39.6,3.3s38.9,17.5,38.9,38.9S61,81.2,39.6,81.2z
					 M39.6,6.8C20,6.8,4.1,22.7,4.1,42.3S20,77.7,39.6,77.7S75,61.8,75,42.3S59.1,6.8,39.6,6.8z"/>
			</g>
		</g>
	</g>
	<g>
		<g>
			<g>
				<g>
					<path fill="#E0E0E0" d="M237.4,233.5l0,12.7c-3.1,2.4-6.6,4.4-10.4,5.8l3.8-28.8C234.8,225.1,237.4,229.1,237.4,233.5z"/>
				</g>
			</g>
			<g>
				<g>
					<path fill="#E0E0E0" d="M203.4,252.6c-4.5-1.4-8.7-3.6-12.3-6.5l0-12.6c0-4.2,3.5-8.5,8.3-10.4L203.4,252.6z"/>
				</g>
			</g>
			<g>
				<g>
					<path fill="#4A555F" d="M215.1,218.1c-9.1,0-16.5-7.4-16.5-16.5s7.4-16.5,16.5-16.5s16.5,7.4,16.5,16.5
						S224.2,218.1,215.1,218.1z M215.1,188.7c-7.2,0-13,5.8-13,13c0,7.2,5.8,13,13,13s13-5.8,13-13
						C228.1,194.5,222.3,188.7,215.1,188.7z"/>
				</g>
				<g>
					<path fill="#FFD552" d="M215.1,210.6c-4.9,0-8.9-4-8.9-8.9c0-4.9,4-8.9,8.9-8.9c4.9,0,8.9,4,8.9,8.9
						C224,206.6,220,210.6,215.1,210.6z"/>
				</g>
				<g>
					<path fill="#4A555F" d="M245.1,240.4h-3.5V234c0-8.7-7-15.8-15.7-15.9h-22.8c-8.8,0-15.9,7.1-15.9,15.9v6.4h-3.5V234
						c0-10.7,8.7-19.4,19.4-19.4h22.8c10.6,0.1,19.2,8.8,19.2,19.4V240.4z"/>
				</g>
				<g>
					<path fill="#4A555F" d="M209.2,255.6h-1.5l-0.2-1.5l-5.1-39.5h6.4l5.8,7l-6.3,11l2.7,21.1l-1.7,0.2L209.2,255.6z M206.3,218.1
						l1.1,8.7l2.8-4.9l-3.2-3.8H206.3z"/>
				</g>
				<g>
					<path fill="#4A555F" d="M222.8,253.9l-3.5-0.4l2.7-20.9l-5.8-11.2l5.8-6.7h5.8L222.8,253.9z M220.5,221.8l2.4,4.6l1.1-8.3h-0.3
						L220.5,221.8z"/>
				</g>
				<g>
					<rect x="213.4" y="225.1" fill="#4A555F" width="3.5" height="29.1"/>
				</g>
				<g>
					<polygon fill="#4A555F" points="215.2,227.8 211,222.9 213.7,220.7 215.2,222.5 217.1,220.4 219.7,222.7 					"/>
				</g>
			</g>
			<g>
				<path fill="#4A555F" d="M214.4,256c-21.5,0-38.9-17.5-38.9-38.9s17.5-38.9,38.9-38.9s38.9,17.5,38.9,38.9S235.8,256,214.4,256z
					 M214.4,181.6c-19.5,0-35.4,15.9-35.4,35.4s15.9,35.4,35.4,35.4s35.4-15.9,35.4-35.4S233.9,181.6,214.4,181.6z"/>
			</g>
		</g>
	</g>
	<g>
		<g>
			<g>
				<path fill="#E0E0E0" d="M174.3,156.6v18.9c-7.4,7-16.5,12.2-26.6,15.1l7.7-57.5l0.2,0C166.4,135.5,174.3,145.4,174.3,156.6z"/>
			</g>
		</g>
		<g>
			<g>
				<path fill="#E0E0E0" d="M114.7,191.3c-11.4-2.7-21.7-8.3-29.9-16.1v-18.6c0-10.6,9.6-21,21.9-23.6l0.2,0L114.7,191.3z"/>
			</g>
		</g>
		<g>
			<g>
				<path fill="#4A555F" d="M131,128.1c-15.2,0-27.6-12.4-27.6-27.6s12.4-27.6,27.6-27.6c15.2,0,27.6,12.4,27.6,27.6
					S146.3,128.1,131,128.1z M131,76.3c-13.3,0-24.2,10.8-24.2,24.2s10.8,24.2,24.2,24.2c13.3,0,24.2-10.8,24.2-24.2
					S144.4,76.3,131,76.3z"/>
			</g>
			<g>
				<path fill="#FFD552" d="M131,120.2c-10.9,0-19.7-8.9-19.7-19.7c0-10.9,8.9-19.7,19.7-19.7c10.9,0,19.7,8.9,19.7,19.7
					C150.8,111.4,141.9,120.2,131,120.2z"/>
			</g>
			<g>
				<path fill="#4A555F" d="M182.3,168.7h-3.5v-11.3c0-15.9-13-29.1-28.9-29.2l-0.1,0c-0.1,0-0.1,0-0.2,0h-39.8
					c-16.1,0-29.2,13.1-29.2,29.3v11.3h-3.5v-11.3c0-18.1,14.7-32.7,32.7-32.7h39.8c0.1,0,0.3,0,0.4,0c17.8,0.2,32.3,14.9,32.3,32.7
					V168.7z"/>
			</g>
			<g>
				<path fill="#4A555F" d="M118.8,192.6l-5-38.6l-0.1,0l0-0.1l-3.8-29.3h9l9.2,11.1l-10.8,18.9l4.8,37.5L118.8,192.6z M114,128.1
					l2.7,20.8l7.3-12.8l-6.6-7.9H114z"/>
			</g>
			<g>
				<path fill="#4A555F" d="M143.3,192.2l-3.5-0.4l4.8-37.2l-9.9-19.3l9.2-10.6h7.9l0,2l-3.5,27.3l0.1,0.1l-0.1,0.1l0,0.3
					L143.3,192.2z M138.8,135.8l6.5,12.7l2.6-20.3h-2.6L138.8,135.8z"/>
			</g>
			<g>
				<rect x="129.4" y="141.8" fill="#4A555F" width="3.5" height="51.2"/>
			</g>
			<g>
				<polygon fill="#4A555F" points="131.1,144.5 124.8,137 127.5,134.8 131.2,139.2 135.4,134.4 138,136.7 				"/>
			</g>
			<g>
				<circle fill="#4A555F" cx="138.4" cy="157.5" r="2.7"/>
			</g>
			<g>
				<circle fill="#4A555F" cx="138.4" cy="177.1" r="2.7"/>
			</g>
		</g>
	</g>
	<g>
		<path fill="#4A555F" d="M129.7,194.8c-37,0-67.2-30.1-67.2-67.2s30.1-67.2,67.2-67.2s67.2,30.1,67.2,67.2S166.7,194.8,129.7,194.8
			z M129.7,63.9C94.6,63.9,66,92.5,66,127.6s28.6,63.7,63.7,63.7s63.7-28.6,63.7-63.7S164.8,63.9,129.7,63.9z"/>
	</g>
</g>
</svg>
